<?xml version="1.0" encoding="UTF-8"?>
<svg id="Layer_1" xmlns="http://www.w3.org/2000/svg" xmlns:xlink="http://www.w3.org/1999/xlink" viewBox="0 0 159.15 146">
  <defs>
    <style>
      .cls-1 {
        fill: url(#linear-gradient-2);
      }

      .cls-2 {
        fill: url(#linear-gradient-3);
      }

      .cls-3 {
        fill: url(#linear-gradient);
      }
    </style>
    <linearGradient id="linear-gradient" x1="67.9" y1="137.98" x2="-3.27" y2="-25.13" gradientUnits="userSpaceOnUse">
      <stop offset="0" stop-color="#035cf9"/>
      <stop offset=".99" stop-color="#1e8eff"/>
    </linearGradient>
    <linearGradient id="linear-gradient-2" x1="69.94" y1="-24.11" x2="125.01" y2="105.76" gradientUnits="userSpaceOnUse">
      <stop offset="0" stop-color="#0763f6"/>
      <stop offset=".5" stop-color="#19a9d6"/>
      <stop offset=".6" stop-color="#17acc9"/>
      <stop offset=".78" stop-color="#11b7a9"/>
      <stop offset="1" stop-color="#0ac779"/>
    </linearGradient>
    <linearGradient id="linear-gradient-3" x1="76.08" y1="91.27" x2="78.62" y2="117.59" gradientUnits="userSpaceOnUse">
      <stop offset="0" stop-color="#0763f6" stop-opacity="0"/>
      <stop offset=".87" stop-color="#0ac779"/>
    </linearGradient>
  </defs>
  <path class="cls-3" d="M115.67,143.03c-16.97,4.68-56.28,2.42-56.28,2.42-26.75-1.9-41.6-16.02-49.76-29.65C3.23,105.11,0,92.82,0,80.36V27.02C0,.18,21.47.18,21.47.18h20.43c2.49,0,4.5,2.02,4.5,4.5v78.32c0,7.04,2.82,13.86,8,18.63,2.32,2.14,5.26,4.04,8.97,5.21,0,0,17.09,39.15,55.5,35.24l-3.2.95Z"/>
  <path class="cls-1" d="M62.86,105.27s16.79,48.5,56.01,36.81c15.21-4.53,24.76-13.98,30.72-23.7,6.29-10.25,9.48-22.1,9.48-34.12v-25.32C161.38.07,111.12.18,111.12.18c0,0-25.24-3.81-43.25,23.43,0,0-6.93,9.64-7.27,22.8-.23,8.58-.16,26.5-.08,37.94.04,6.85.79,13.67,2.23,20.37l.12.54c.22,1.02.97,1.84,1.96,2.14,2.75.83,8.57,2.09,14.23.06.29-.1.58-.22.87-.34,5.09-2.15,9.9-7.16,12.02-17.77.17-.87.35-42.94.35-42.94,0,0,2.98-14.89,17.51-14.37,14.53.52,16.08,12.81,16.08,12.81l.52,45.02c-.15.42-4.14,26.08-28.59,25.13-.3-.01-.61-.02-.91-.03-1.82-.04-10.94-.6-17.85-7.51"/>
  <path class="cls-2" d="M63.37,106.84s7.46,3.26,15.68.62c0,0,5.8,5.88,13.47,6.99,0,0-17.77,4.56-23.34,3.81,0,0-5.18-9.31-5.81-11.43Z"/>
</svg>